<?xml version="1.0" encoding="UTF-8"?>
<!DOCTYPE svg PUBLIC "-//W3C//DTD SVG 1.1//EN" "http://www.w3.org/Graphics/SVG/1.1/DTD/svg11.dtd">
<svg version="1.1" xmlns="http://www.w3.org/2000/svg" xmlns:xlink="http://www.w3.org/1999/xlink" x="0" y="0" width="52" height="46" viewBox="0, 0, 52, 46">
  <g id="Layer_2">
    <g>
      <path d="M13.907,43.946 L1.813,23 L13.907,2.054 L38.093,2.054 L50.187,23 L38.093,43.946 z" fill="#4381E9"/>
      <path d="M13.907,43.946 L1.813,23 L13.907,2.054 L38.093,2.054 L50.187,23 L38.093,43.946 z" fill-opacity="0" stroke="#4381E9" stroke-width="3" stroke-linejoin="bevel"/>
    </g>
    <path d="M0.088,0 L23.854,0 L23.854,24 L0.088,24 L0.088,0 z" fill-opacity="0" stroke="#000000" stroke-width="0.25" display="none"/>
  </g>
  <g id="Page-1">
    <path d="M31.969,16.446 L32.034,16.459 C32.292,16.512 32.493,16.714 32.546,16.971 L32.559,17.036 L32.559,28.753 L32.546,28.818 C32.493,29.076 32.292,29.277 32.034,29.33 L31.969,29.343 L20.252,29.343 L20.187,29.33 C19.929,29.277 19.728,29.076 19.675,28.818 L19.662,28.753 L19.662,17.036 L19.675,16.971 C19.728,16.714 19.929,16.512 20.187,16.459 L20.252,16.446 L31.969,16.446 L31.969,16.446 z M32.512,11.147 L29.965,11.147 L29.965,13.981 L27.661,13.981 L27.661,11.147 L25.114,11.147 L25.114,13.981 L22.255,13.981 L22.255,11.147 L19.709,11.147 L19.709,14.039 C18.47,14.286 17.502,15.254 17.255,16.493 L14.118,16.493 L14.118,19.04 L17.196,19.04 L17.196,21.899 L14.117,21.899 L14.117,24.445 L17.195,24.445 L17.195,26.753 L14.117,26.753 L14.117,29.296 L17.254,29.296 C17.501,30.535 18.469,31.503 19.708,31.75 L19.708,34.913 L22.254,34.913 L22.254,31.809 L25.114,31.809 L25.114,34.912 L27.661,34.912 L27.661,31.809 L29.965,31.809 L29.965,34.912 L32.512,34.912 L32.512,31.75 C33.751,31.503 34.719,30.535 34.966,29.296 L37.879,29.296 L37.879,26.753 L35.025,26.753 L35.025,24.445 L37.883,24.445 L37.883,21.899 L35.025,21.899 L35.025,19.04 L37.883,19.04 L37.883,16.493 L34.97,16.493 C34.723,15.254 33.755,14.286 32.517,14.039 L32.517,11.147 L32.512,11.147 z" fill="#FFFFFF" id="Shape"/>
    <path d="M19.351,20.328 C19.104,20.344 18.89,20.157 18.873,19.91 C18.857,19.662 19.044,19.448 19.292,19.432 L22.048,19.057 C22.207,19.036 22.365,19.101 22.463,19.227 C22.561,19.354 22.584,19.523 22.523,19.671 C22.463,19.82 22.328,19.924 22.169,19.946 L19.412,20.323 C19.392,20.326 19.372,20.328 19.351,20.328 L19.351,20.328 z" fill="#FFFFFF" id="Shape"/>
    <path d="M22.728,19.917 L23.038,18.966 L28.003,20.584 L27.693,21.535 z" fill="#FFFFFF" id="Rectangle-path"/>
    <path d="M22.587,19.77 C22.446,19.77 22.312,19.704 22.228,19.59 C22.143,19.477 22.117,19.331 22.157,19.195 L23.165,15.793 C23.206,15.635 23.33,15.511 23.489,15.471 C23.647,15.431 23.815,15.481 23.926,15.6 C24.038,15.72 24.075,15.891 24.024,16.046 L23.016,19.448 C22.96,19.639 22.785,19.77 22.587,19.77 z" fill="#FFFFFF" id="Shape"/>
    <path d="M28.723,21.444 C28.575,21.444 28.436,21.37 28.352,21.248 C28.269,21.125 28.252,20.969 28.306,20.831 L30.315,15.755 C30.407,15.526 30.666,15.415 30.895,15.505 C31.125,15.596 31.238,15.854 31.149,16.084 L29.14,21.16 C29.072,21.331 28.907,21.444 28.723,21.444 z" fill="#FFFFFF" id="Shape"/>
    <path d="M18.381,28.683 L23.088,24.924 L23.712,25.705 L19.005,29.464 z" fill="#FFFFFF" id="Rectangle-path"/>
    <path d="M28.488,21.628 L28.888,20.711 L33.239,22.608 L32.84,23.524 z" fill="#FFFFFF" id="Rectangle-path"/>
    <path d="M28.342,26.27 L29.028,25.542 L32.896,29.187 L32.21,29.915 z" fill="#FFFFFF" id="Rectangle-path"/>
    <path d="M22.111,19.709 L23.091,19.51 L24.058,24.271 L23.078,24.47 z" fill="#FFFFFF" id="Rectangle-path"/>
    <path d="M23.52,25.084 L28.429,20.769 L29.089,21.52 L24.18,25.835 z" fill="#FFFFFF" id="Rectangle-path"/>
    <path d="M28.055,25.843 L28.353,21.083 L29.351,21.145 L29.053,25.905 z" fill="#FFFFFF" id="Rectangle-path"/>
    <path d="M25.213,25.347 C25.213,26.247 24.483,26.977 23.583,26.977 C22.683,26.977 21.953,26.247 21.953,25.347 C21.953,24.447 22.683,23.717 23.583,23.717 C24.483,23.717 25.213,24.447 25.213,25.347 z" fill="#FFFFFF" id="Oval"/>
    <path d="M30.726,21.211 C30.726,22.278 29.861,23.143 28.794,23.143 C27.726,23.143 26.861,22.278 26.861,21.211 C26.861,20.143 27.726,19.278 28.794,19.278 C29.861,19.278 30.726,20.143 30.726,21.211 z" fill="#FFFFFF" id="Oval"/>
    <path d="M29.792,26.211 C29.792,26.77 29.338,27.224 28.779,27.224 C28.22,27.224 27.766,26.77 27.766,26.211 C27.766,25.652 28.22,25.198 28.779,25.198 C29.338,25.198 29.792,25.652 29.792,26.211 z" fill="#FFFFFF" id="Oval"/>
    <path d="M23.61,19.183 C23.61,19.84 23.077,20.373 22.42,20.373 C21.763,20.373 21.23,19.84 21.23,19.183 C21.23,18.526 21.763,17.993 22.42,17.993 C23.077,17.993 23.61,18.526 23.61,19.183 z" fill="#FFFFFF" id="Oval"/>
  </g>
</svg>
